<?xml version="1.0" encoding="UTF-8"?>
<svg width="3205" height="577" viewBox="0 0 3205 577" xmlns="http://www.w3.org/2000/svg" xmlns:xlink="http://www.w3.org/1999/xlink">
    <g id="Logo-Placeholder-Replace-With-Your-Logo">
        <g id="to8zzb">
            <path id="Path" fill="none" stroke="#a0c8d7" stroke-width="37.481621" stroke-linecap="round" stroke-linejoin="round" d="M 262.205505 243.277771 C 319.677307 194.551666 395.889954 169.563934 469.60379 174.561462 C 558.310303 180.80838 643.268677 225.786377 730.725769 215.791229 C 755.713501 213.29248 780.701233 205.796143 800.691467 190.803467 C 829.427368 169.563934 846.918823 132.082306 841.921265 95.850067 C 836.923706 59.617798 808.187744 28.383118 773.204956 20.886841 C 738.222046 13.390503 698.241699 33.380676 684.498413 67.114105 C 675.752686 88.35376 678.251465 115.84024 694.49353 132.082306 C 710.735596 148.324341 740.720886 150.82312 756.962891 133.331665"/>
            <path id="path1" fill="none" stroke="#a0c8d7" stroke-width="37.481621" stroke-linecap="round" stroke-linejoin="round" d="M 217.227554 338.231201 C 275.948761 294.502655 342.166321 260.769196 412.131989 238.280243"/>
            <path id="path2" fill="none" stroke="#77a4bd" stroke-width="37.481621" stroke-linecap="round" stroke-linejoin="round" d="M 348.413239 348.226318 C 405.88504 300.749603 480.848297 274.512451 554.562195 274.512451 C 673.253967 274.512451 783.200012 339.480591 901.891785 339.480591 C 935.625305 339.480591 973.106934 331.984283 996.845337 306.996552 C 1023.082397 279.51001 1025.581177 230.783875 1000.593445 203.297363 C 974.356323 174.561462 923.131409 175.810883 899.393066 205.796143 C 886.89917 222.038147 883.151001 247.025909 896.894348 263.267975 C 910.637573 279.51001 940.622864 278.26059 949.36853 259.519775"/>
            <path id="path3" fill="none" stroke="#a0c8d7" stroke-width="37.481621" stroke-linecap="round" stroke-linejoin="round" d="M 19 503.15033 C 73.939819 543.130737 152.603683 534.38501 217.532547 511.896088 C 294.947754 484.409515 366.119812 440.680969 439.789154 401.949951 C 467.259064 386.957306 494.728943 373.21405 524.696106 365.717712 C 564.652405 355.722626 607.105835 356.972046 645.813477 370.715271 C 665.791565 378.211578 684.521057 388.206726 698.256042 403.199341 C 724.477356 431.935272 729.471863 478.162567 710.742371 511.896088 C 690.764221 545.629517 648.310791 564.3703 610.851807 555.624634 C 600.862671 553.125793 589.625061 549.377686 582.133179 541.881287 C 553.414673 514.394836 563.403748 450.676086 612.100403 454.424255 C 625.835327 455.673615 638.321655 463.169952 644.564819 475.663818"/>
        </g>
        <text id="HERMES" xml:space="preserve" x="2187" y="471" text-anchor="middle" font-family="Ubuntu" font-size="518" font-weight="700" fill="#a0c8d7" letter-spacing="-10.21076">HERMES</text>
    </g>
</svg>
