<?xml version="1.0" standalone="no"?>
<!DOCTYPE svg PUBLIC "-//W3C//DTD SVG 20010904//EN"
 "http://www.w3.org/TR/2001/REC-SVG-20010904/DTD/svg10.dtd">
<svg version="1.0" xmlns="http://www.w3.org/2000/svg"
 width="700.000000pt" height="700.000000pt" viewBox="0 0 700.000000 700.000000"
 preserveAspectRatio="xMidYMid meet">
<metadata>
Created by potrace 1.14, written by Peter Selinger 2001-2017
</metadata>
<g transform="translate(0.000000,700.000000) scale(0.100000,-0.100000)"
fill="#000000" stroke="none">
<path d="M1520 6984 c-802 -109 -1417 -740 -1510 -1549 -14 -124 -14 -3746 0
-3870 70 -608 429 -1118 975 -1386 193 -94 368 -145 587 -168 128 -14 3724
-15 3856 -1 606 64 1131 431 1393 975 95 196 145 370 168 587 14 128 15 3724
1 3856 -22 210 -74 391 -169 587 -261 542 -778 905 -1386 975 -59 6 -734 10
-1950 9 -1549 -1 -1878 -3 -1965 -15z m3275 -2089 c80 -21 148 -60 216 -123
114 -105 170 -232 170 -385 0 -52 -7 -118 -16 -151 -43 -163 -164 -310 -315
-385 -127 -63 -210 -81 -385 -88 -195 -7 -299 8 -665 97 -157 38 -325 76 -375
85 -396 69 -754 -17 -1084 -260 -87 -65 -118 -70 -162 -26 -63 64 -29 120 142
233 116 77 231 133 368 178 176 59 276 75 481 74 208 0 254 -7 650 -104 359
-87 473 -104 645 -97 138 6 198 19 289 60 79 36 169 125 209 206 30 61 32 72
32 171 0 96 -2 110 -28 158 -35 67 -92 124 -159 159 -45 23 -65 28 -133 28
-64 0 -89 -5 -125 -24 -124 -64 -189 -183 -160 -292 29 -108 142 -151 222 -84
63 53 147 15 148 -67 0 -44 -41 -90 -110 -122 -70 -32 -188 -29 -262 7 -135
66 -209 223 -179 384 18 98 55 169 126 239 125 123 297 171 460 129z m982
-817 c79 -29 143 -78 188 -144 55 -81 75 -147 75 -254 0 -246 -139 -415 -407
-492 -68 -20 -101 -23 -263 -23 -263 0 -388 23 -916 171 -544 151 -809 175
-1121 99 -224 -54 -369 -124 -606 -291 -71 -51 -147 -20 -147 59 0 48 31 80
165 168 176 117 383 203 605 251 92 19 134 22 330 22 293 1 382 -15 916 -164
343 -96 476 -124 675 -140 247 -20 449 34 532 143 87 115 86 288 -2 376 -137
137 -391 61 -391 -118 0 -54 27 -85 74 -85 30 0 42 6 62 31 45 58 127 49 153
-16 37 -87 -81 -191 -215 -191 -155 0 -267 132 -250 295 25 244 296 395 543
303z m-2740 -270 c30 -33 36 -62 20 -101 -16 -37 -9 -33 -199 -103 -227 -82
-521 -236 -717 -376 -105 -75 -138 -82 -181 -40 -32 32 -40 76 -20 112 15 28
287 205 440 287 220 118 527 241 601 242 25 1 42 -6 56 -21z m1003 -599 c368
-86 567 -315 547 -628 -16 -249 -185 -435 -443 -488 -92 -19 -192 -10 -285 26
-187 71 -268 305 -174 498 61 123 206 180 350 139 45 -14 69 -29 111 -71 55
-55 70 -88 60 -130 -17 -68 -104 -90 -151 -39 -14 15 -25 31 -25 35 0 15 -58
39 -94 39 -115 0 -151 -186 -54 -277 13 -13 54 -30 92 -40 117 -28 234 7 332
99 76 72 99 130 99 248 -1 83 -4 103 -29 157 -54 118 -178 205 -361 254 -63
17 -110 22 -220 22 -248 1 -334 -30 -849 -307 -533 -286 -676 -355 -907 -434
-398 -137 -768 -126 -1011 29 -86 55 -101 107 -49 160 40 39 66 37 164 -15
143 -77 272 -100 470 -84 287 24 550 128 1171 463 510 274 626 326 801 354 39
6 81 13 95 15 61 11 271 -4 360 -25z"/>
</g>
</svg>
